<?xml version="1.0" encoding="utf-8"?>
<!-- Generator: Adobe Illustrator 21.1.0, SVG Export Plug-In . SVG Version: 6.00 Build 0)  -->
<svg version="1.1" id="Layer_1" xmlns="http://www.w3.org/2000/svg" xmlns:xlink="http://www.w3.org/1999/xlink" x="0px" y="0px"
	 viewBox="0 0 42 42" style="enable-background:new 0 0 42 42;" xml:space="preserve">
<style type="text/css">
	.st0{fill:#FFFFFF;}
	.st1{fill:url(#Shape-Copy-2_1_);}
</style>
<title>Icon</title>
<desc>Created with Sketch.</desc>
<g id="Page-1">
	<g id="Catalog" transform="translate(-354.000000, -648.000000)">
		<g id="line-1">
			<g id="product-card" transform="translate(0.000000, 12.000000)">
				<g id="Icon" transform="translate(222.000000, 12.000000)">
					<g>
						<circle id="Oval-Copy-5" class="st0" cx="153" cy="645" r="21"/>
						<radialGradient id="Shape-Copy-2_1_" cx="153" cy="645" r="9.5131" gradientUnits="userSpaceOnUse">
							<stop  offset="0" style="stop-color:#0AD4FA"/>
							<stop  offset="1" style="stop-color:#25BBF1"/>
						</radialGradient>
						<path id="Shape-Copy-2" class="st1" d="M162,653.1l-1.1-13.6c0-0.3-0.3-0.5-0.6-0.5h-3v-1.1c0-1.6-1.4-2.9-3-2.9h-2.4
							c-1.7,0-3,1.3-3,2.9v1.1h-3c-0.3,0-0.6,0.2-0.6,0.5l-1.1,13.6c0,0.5,0.1,1,0.5,1.3c0.3,0.4,0.8,0.6,1.3,0.6h14.4
							c0.5,0,1-0.2,1.3-0.6S162,653.6,162,653.1z M150,638.3c0-1.2,0.8-2.3,1.8-2.3h2.4c1,0,1.8,1,1.8,2.3v0.8h-6V638.3z"/>
					</g>
				</g>
			</g>
		</g>
	</g>
</g>
</svg>
